# xmcd CD database file
#
# Track frame offsets:
#	150
#	20904
#	35730
#	57288
#	84223
#	99358
#	118108
#	137416
#	151246
#
# Disc length: 2196 seconds
#
# Revision: 0
# Processed by: cddbd v1.5.2PL0 Copyright (c) Steve Scherf et al.
# Submitted via: CDex 1.51
#
DISCID=6c089209
DTITLE=Elmo Hope Ensemble - Sounds from Rikers Island
DYEAR=1963
DGENRE=Jazz
TTITLE0=One For Joe
TTITLE1=Ecstasy
TTITLE2=Three Silver Quart
TTITLE3=A Night In Tunisia
TTITLE4=Trippin
TTITLE5=It Shouldn't Happen To A Dream
TTITLE6=Kevin
TTITLE7=Monique
TTITLE8=Groovin' High
EXTD=YEAR: 1963
EXTT0=
EXTT1=
EXTT2=
EXTT3=
EXTT4=
EXTT5=
EXTT6=
EXTT7=
EXTT8=
PLAYORDER=
